# xmcd
#
# Track frame offsets:
#	182
#	18625
#	37870
#	58055
#	75637
#	94665
#	113717
#	131845
#	152317
#	173262
#	191032
#	212612
#
# Disc length: 3083 seconds
#
# Revision: 0
# Processed by: cddbd v1.5.2PL0 Copyright (c) Steve Scherf et al.
# Submitted via: audiograbber 1.83.01
#
DISCID=8e0c090c
DTITLE=Sergio Dalma - Cuerpo a Cuerpo
DYEAR=1900
DGENRE=
TTITLE0=Si tengo que morir
TTITLE1=No voy a volver a llorar
TTITLE2=Naufragos
TTITLE3=A tu lado
TTITLE4=Un cachito de ti
TTITLE5=September Night
TTITLE6=No despertare
TTITLE7=Yo siempre de ti
TTITLE8=La marca de tus labios
TTITLE9=La primavera llegara
TTITLE10=Los ni os de la guerra
TTITLE11=Y yo te bese
EXTD=
EXTT0=
EXTT1=
EXTT2=
EXTT3=
EXTT4=
EXTT5=
EXTT6=
EXTT7=
EXTT8=
EXTT9=
EXTT10=
EXTT11=
PLAYORDER=
